<?xml version="1.0" standalone="no"?><!DOCTYPE svg PUBLIC "-//W3C//DTD SVG 1.1//EN" "http://www.w3.org/Graphics/SVG/1.1/DTD/svg11.dtd"><svg class="icon" width="200px" height="200.00px" viewBox="0 0 1024 1024" version="1.1" xmlns="http://www.w3.org/2000/svg"><path fill="#333333" d="M868.096 466.8416c-1.5872-52.2752-34.56-96.768-80.64-115.4048 4.4544-19.5584 3.6864-40.0384-2.4064-59.6992a115.6608 115.6608 0 0 0-56.7296-68.5056c-54.0672-28.5696-120.6784-10.1376-152.6784 40.8576a191.97952 191.97952 0 0 0-123.8528-45.1072c-106.3424 0-192.8192 86.528-192.8192 192.8704 0 10.2912 0.8192 20.5824 2.4576 30.6688-75.4176 16.128-130.56 83.2-130.56 161.6896 0 91.136 74.1888 165.3248 165.3248 165.3248h479.8464c91.136 0 165.3248-74.1888 165.3248-165.3248 0-55.808-27.2384-106.5472-73.2672-137.3696z m-152.5248-219.392c20.992 11.1104 36.4032 29.696 43.3664 52.3776 4.5056 14.5408 5.1712 29.6448 2.1504 44.1856-7.0144-1.1776-14.2848-1.792-21.6576-1.792-37.5808 0-72.5504 16.64-96.512 43.6736-5.2736-38.8608-22.1696-74.0864-47.0528-102.0416 23.0912-42.8544 76.5952-59.1872 119.7056-36.4032z m60.4672 494.7968H296.192c-76.0832 0-137.984-61.9008-137.984-137.984 0-69.632 52.0192-128.512 121.0368-136.96 3.8912-0.512 7.3728-2.56 9.5744-5.7856 2.2016-3.2256 2.9696-7.2192 2.048-11.008-3.0208-12.544-4.5568-25.4976-4.5568-38.6048 0-91.2384 74.24-165.4784 165.4784-165.4784 43.008 0 82.2784 16.4864 111.7696 43.52 3.84 3.5328 7.5264 7.2192 11.008 11.1104 3.9936 4.4032 7.7312 9.0624 11.264 13.8752 16.4352 22.5792 27.2384 49.5104 30.464 78.6432 0.6656 5.8368 0.9728 11.776 1.024 17.8176v0.512c0 5.0688-0.256 10.1376-0.6656 15.104-0.3072 3.1744-0.6656 6.2976-1.1264 9.4208-0.3584 2.304-0.1024 4.5056 0.6144 6.5536 1.536 4.352 5.1712 7.7824 9.984 8.8064 4.9152 1.0752 9.8304-0.6144 13.0048-4.096 1.3824-1.4848 2.4576-3.2768 3.072-5.376 4.0448-13.7728 10.9056-26.2144 19.8144-36.7104 18.8928-22.272 47.104-36.096 77.4656-36.096a101.43744 101.43744 0 0 1 25.8048 3.328c4.5056 1.1776 8.8576 2.6624 13.1072 4.4032 36.6592 15.3088 62.464 51.5072 62.464 93.6448 0 1.024 0 1.9968-0.0512 3.0208-0.1536 4.9664 2.3552 9.5744 6.6048 12.1344 41.7792 25.2416 66.6624 69.376 66.6624 118.1696-0.0512 76.0832-61.952 138.0352-138.0352 138.0352z"  /><path fill="#333333" d="M709.9904 705.1776c0 7.5776-6.0928 13.6704-13.6704 13.6704H322.4576c-48.64 0-93.952-24.064-121.1904-64.4096-4.1984-6.2464-2.56-14.7456 3.6864-18.944 6.2464-4.2496 14.7456-2.6112 18.9952 3.6864 2.3552 3.4816 4.864 6.7584 7.4752 9.9328a118.61504 118.61504 0 0 0 90.9824 42.4448H696.32a13.62432 13.62432 0 0 1 13.6704 13.6192zM466.2272 290.2528c0 7.5776-6.144 13.6704-13.6704 13.6704-5.0176 0-9.8816 0.3584-14.6944 1.024-45.568 6.5024-81.664 42.5984-88.1664 88.1664-0.6656 4.8128-1.024 9.728-1.024 14.6944 0 7.5776-6.0928 13.6704-13.6704 13.6704s-13.6704-6.0928-13.6704-13.6704c0-72.3456 58.88-131.2256 131.2256-131.2256 7.5264 0 13.6704 6.144 13.6704 13.6704z"  /></svg>