<?xml version="1.0" standalone="no"?><!DOCTYPE svg PUBLIC "-//W3C//DTD SVG 1.1//EN" "http://www.w3.org/Graphics/SVG/1.1/DTD/svg11.dtd"><svg class="icon" width="200px" height="200.00px" viewBox="0 0 1024 1024" version="1.1" xmlns="http://www.w3.org/2000/svg"><path fill="#333333" d="M849.042286 743.131429a343.259429 343.259429 0 0 0-78.409143-109.714286 367.177143 367.177143 0 0 0-116.297143-74.093714l-1.097143-0.438858c60.562286-41.398857 99.986286-108.690286 99.986286-184.685714C753.225143 248.246857 645.266286 146.285714 512 146.285714S270.774857 248.246857 270.774857 374.198857c0 75.995429 39.424 143.36 99.986286 184.758857l-1.170286 0.438857a364.032 364.032 0 0 0-116.224 74.093715c-33.572571 31.670857-59.904 68.608-78.409143 109.787428A325.558857 325.558857 0 0 0 146.285714 870.180571a7.533714 7.533714 0 0 0 7.753143 7.533715h58.368a7.606857 7.606857 0 0 0 7.826286-7.168 266.898286 266.898286 0 0 1 85.357714-187.757715A298.642286 298.642286 0 0 1 512 602.038857c77.970286 0 151.259429 28.672 206.409143 80.749714a266.898286 266.898286 0 0 1 85.357714 187.757715c0.146286 4.022857 3.510857 7.168 7.826286 7.168h58.368c4.388571 0 7.826286-3.364571 7.753143-7.533715a326.363429 326.363429 0 0 0-28.672-126.976zM512 532.260571c-44.617143 0-86.674286-16.384-118.272-46.299428a152.795429 152.795429 0 0 1-49.005714-111.689143c0-42.203429 17.408-81.92 49.005714-111.762286A171.227429 171.227429 0 0 1 512 216.137143c44.617143 0 86.674286 16.457143 118.272 46.299428 31.597714 29.842286 49.005714 69.485714 49.005714 111.762286 0 42.130286-17.408 81.846857-49.005714 111.689143A171.227429 171.227429 0 0 1 512 532.187429z" /></svg>